<svg xmlns="http://www.w3.org/2000/svg"
 xmlns:xlink="http://www.w3.org/1999/xlink"
 version="1.0" width="300" height="200">

  <rect width="300" height="200" style="stroke:none;fill:#FFF;" />
  <defs>
    <marker id="arrowhead_red" markerWidth="8" markerHeight="7" refX="12.5" refY="3.5" orient="auto">
      <polygon style="fill:#F00" points="0 0, 8 3.5, 0 7" />
    </marker>
    <marker id="arrowhead_cyan" markerWidth="8" markerHeight="7" refX="8" refY="3.5" orient="auto">
      <polygon style="fill:#09F" points="0 0, 8 3.5, 0 7" />
    </marker>
  </defs>
  <g style="fill:none;stroke-width:1;stroke-linecap:round;">
    <g style="stroke:#DDD">
      <path d="M105, 10l 180, 0"/>
      <path d="M105, 190l 180, 0"/>
      <path d="M105, 10l 0, 180"/>
      <path d="M285, 10l 0, 180"/>
      <path d="M105, 190l 180, -180"/>
      <circle cx="155" cy="80" r="4"/>
    </g>
    <g style="stroke:#000">
      <path d="M105, 190l 180, 0"/>
      <path d="M15, 34.115l 180, 0"/>
      <path d="M105, 190l -90, -155.885"/>
      <path d="M285, 190l -90, -155.885"/>
      <path d="M105, 190l 90, -155.885"/>
    </g>
    <g style="stroke:#09F" marker-end="url(#arrowhead_cyan)">
      <path d="M15, 34.115l 60, 45"/>
      <path d="M195, 34.115l -45, 60"/>
      <path d="M105, 190l 60, -45"/>
      <path d="M285, 190l 0, -75"/>
    </g>
    <g style="stroke:#F00" marker-end="url(#arrowhead_red)">
      <path d="M15, 34.115L 100, 94.737"/>
      <path d="M195, 34.115L 100, 94.737"/>
      <path d="M105, 190L 100, 94.737"/>
      <path d="M285, 190L 100, 94.737"/>
    </g>
    <g style="fill:#FFF;stroke:#000">
      <circle cx="100" cy="94.737" r="4"/>
    </g>
  </g>
</svg>
