<svg xmlns="http://www.w3.org/2000/svg"
 xmlns:xlink="http://www.w3.org/1999/xlink"
 version="1.0" width="300" height="200">

  <rect width="300" height="200" style="stroke:none;fill:#FFF;" />
  <defs>
    <marker id="arrowhead_red" markerWidth="8" markerHeight="7" refX="8" refY="3.5" orient="auto">
      <polygon style="fill:#F00" points="0 0, 8 3.5, 0 7" />
    </marker>
    <marker id="arrowhead_cyan" markerWidth="8" markerHeight="7" refX="8" refY="3.5" orient="auto">
      <polygon style="fill:#09F" points="0 0, 8 3.5, 0 7" />
    </marker>
  </defs>
  <g style="fill:none;stroke-width:1;stroke-linecap:round;">
    <g style="stroke:#EEE">
      <path d="M105, 10l 180, 0"/>
      <path d="M105, 190l 180, 0"/>
      <path d="M105, 10l 0, 180"/>
      <path d="M285, 10l 0, 180"/>
      <path d="M105, 190l 180, -180"/>
      <circle cx="155" cy="80" r="10"/>
    </g>
    <g style="stroke:#000">
      <path d="M105, 190l 180, 0"/>
      <path d="M15, 62.721l 180, 0"/>
      <path d="M105, 190l -90, -127.279"/>
      <path d="M285, 190l -90, -127.279"/>
      <path d="M105, 190l 90, -127.297"/>
      <circle cx="91.360" cy="112.218" r="10"/>
    </g>
    <g style="stroke:#09F" marker-end="url(#arrowhead_cyan)">
      <path d="M15, 62.721l 60, 45"/>
      <path d="M195, 62.721l -45, -60"/>
      <path d="M105, 190l 60, -45"/>
      <path d="M285, 190l 0, -75"/>
    </g>
  </g>
</svg>
